<svg version="1.0" xmlns="http://www.w3.org/2000/svg" width="682.667" height="682.667" viewBox="0 0 512 512"><path d="M134.5 25.5C98.8 35.1 67.8 43.4 65.7 44c-4.9 1.4-7.7 4.3-7.7 7.9 0 5.8 2.2 7 23.1 12.5l19.4 5.1.5 36c.9 54.7 1.4 65.8 3.8 74.7 6.8 25.3 22.4 46.9 43.4 60.2 4.3 2.7 7.7 5.1 7.5 5.2-.1.1-5.4 1.9-11.7 3.9-40.5 13-76.5 40.1-100.1 75.4-16.3 24.4-28.1 56.2-30.5 81.9-.6 6.6-.5 7.2 1.9 9.6l2.6 2.6h125.8l-.4 2.3c-1.6 8.2 27.9 62 42.5 77.6 6.9 7.4 8 7.2 21.4-4.1l4.5-3.8 3.7 2c5 2.5 6.4 1.9 20-8.9 13.5-10.7 27-20.7 43-31.9l12.1-8.3.8 3.3c2 8.3 8.3 8.9 18.7 1.7l7.3-5 4.1 2.9c12.9 9.2 14.6 9.8 19.1 5.9 2.6-2.2 2.7-2.7 3.7-19.2.6-9.4 1.2-17.2 1.4-17.4.3-.3 7.6 3 16.3 7.3 15.1 7.4 16 7.8 18.7 6.5 4.7-2.3 5.6-5.5 4.4-15.5-.6-4.7-1-8.8-.8-8.9.2-.1 3.7-1.9 7.8-4 9.9-4.9 11-6 11-10.6 0-3-.6-4.2-3.1-6.2l-3.1-2.4 17.7-8.2c15.6-7.2 25.9-11.7 54.1-23.2 7.8-3.2 10.1-5.9 9.1-10.6-.5-2.8-.4-2.9 8.9-6.2 13.6-4.8 14.5-6.7 9.3-19.8-7.5-18.8-22-44-35.9-62.2-9.3-12.3-10.4-12.3-25.3.2l-4.6 3.8-3-2.2c-4-3-6.3-2.2-15.7 5.4-17.8 14.4-62.8 46.7-65 46.7-.3 0-3.3-2.9-6.6-6.5-19.4-21.2-49.7-40.2-78.9-49.7-7.1-2.2-12.8-4.2-12.7-4.4.2-.1 4.4-2.9 9.5-6.3 28.1-18.8 44.2-49.7 44.5-85.6 0-6.1.4-27.4.7-47.4l.6-36.4 6.2-1.8c3.5-.9 7.6-2 9.3-2.4l3-.7v53l-6.5 3.6c-3.5 2-7.1 4.6-8 5.9-2.2 3.1-2.2 51.4 0 55.6 2.8 5.6 7.4 5.5 15.4-.4 3.4-2.5 6.5-4.5 6.9-4.5.5 0 3.5 2 6.8 4.5 6.6 5 9.8 5.5 13.8 2.4l2.6-2v-27.5c0-31.2.7-28.6-9.3-34.3l-5.7-3.2V60.5l3.3-1.5c5.7-2.7 6.3-10.6.9-13.4C338.9 43.9 203.9 8 201.3 8.1c-1 .1-31 7.9-66.8 17.4zM254 38c27.8 7.4 50.7 13.5 50.9 13.7.2.2.2.5 0 .7-.2.2-23.4 6.5-51.6 14L202.1 80l-26.8-7.1C160.6 69 137 62.7 123 59c-25.3-6.7-25.5-6.8-21.5-7.9 12.7-3.8 100.2-26.8 101-26.6.6.1 23.7 6.2 51.5 13.5zm-93.8 47.5c21.9 5.8 40.7 10.5 41.9 10.5 1.6 0 74.8-19 83.2-21.6 1.6-.5 1.7 1.3 1.7 28 0 26.2-.1 28.5-1.7 29-5.9 1.8-62.7 11.9-72 12.9-14.9 1.5-25.1.4-63.3-6.8-16.8-3.1-31.1-5.8-31.7-6.1-1-.2-1.3-6.9-1.3-28.9 0-26.8.1-28.6 1.8-28.1.9.3 19.6 5.3 41.4 11.1zm173.3 48.2l3.5 1.7v13.3c0 7.3-.2 13.3-.3 13.3-.2 0-1.9-.8-3.7-1.7-3.2-1.6-3.6-1.5-7.2.4l-3.8 2.1v-26.6l3.3-2c4-2.5 3.9-2.5 8.2-.5zm-187.8 19.2c38.8 7.4 46.7 8.4 61.3 7.8 6.9-.3 16.6-1.3 21.5-2.2 11.2-2 38.6-7.1 48.2-9.1 4-.7 7.8-1.4 8.4-1.4 1.7 0 .5 21.6-1.6 29.5-.9 3.3-3.6 10.1-6 15.1-11.6 24-32.9 40.6-59.2 46-10.8 2.3-30.1 1.5-39.8-1.6-28.2-9-49.6-30.6-57.6-58.2-2.3-8.2-3.9-30.8-2.1-30.8.5 0 12.6 2.2 26.9 4.9zm78 105c2.5.7 2 1.2-8.6 9.5-6.2 4.8-11.8 8.9-12.5 9.2-1.3.5-25-17.5-24.2-18.3 2-2 38.2-2.3 45.3-.4zm-50.1 17.8c9 6.9 16.3 13 16.2 13.5-.5 1.3-20.2 24.7-21 24.7-.7.1-25.5-43.7-26-45.9-.3-1.3 8-4.8 12-4.9 1.5-.1 8.1 4.3 18.8 12.6zm82.4-10.8c3.4 1.1 5.4 2.3 5.2 3.1-.5 2.1-25.4 46-26.1 46-.9-.1-20.6-24-20.6-25.1 0-1.6 31.9-25.8 34-25.8 1.1 0 4.5.8 7.5 1.8zm197.6 5.4c2.9 3.9 7.1 10.3 9.4 14.2 5.5 9 17 31.9 17 33.7 0 1.3-7.6 4.5-8.5 3.6-.2-.2-3.4-6.4-7.2-13.8-3.7-7.4-10.4-18.9-14.8-25.5-4.4-6.6-8.2-12.4-8.4-12.8-.4-1.1 4.9-6.7 6.3-6.7.6 0 3.4 3.3 6.2 7.3zm-24.7 10.2c10.6 14.4 20.1 31.1 27.7 48.7 1.8 4.3 3 7.9 2.6 8.2-.4.2-5.2 2.2-10.7 4.4-13.9 5.6-35.1 15-53.9 24l-15.8 7.6-9.6-4.9c-9.3-4.9-9.6-5.1-11.4-10.3-2.7-7.4-11.2-16.3-19.4-20.3l-6.5-3.2 4.8-3c25.1-15.8 80.5-55 82.8-58.7 1.4-2.2 3.3-.7 9.4 7.5zm-284.9 23c8.9 15.9 16.9 29.8 17.8 30.7 2.6 2.6 6.4 3.1 9.4 1.1 1.5-1 8.8-9.1 16.3-18.1 7.5-8.9 14-16.2 14.5-16.2.4 0 7 7.3 14.5 16.2 7.5 9 14.8 17.1 16.3 18.1 3 2 6.8 1.5 9.4-1.1.9-.9 9.1-15 18.2-31.3l16.7-29.7 7.7 4.2c9.4 5.1 11.7 6.5 21.2 13.5 7.4 5.4 26 22.7 26 24.2 0 1-32.5 20.4-53.5 32-30.5 16.7-77.1 38.4-101.5 47.4-4.4 1.6-8.6 3.9-10.2 5.6L164 403H29.9l.7-3.8c5.2-30.2 21.1-62.4 42.6-86.2 6.5-7.1 18.6-17.9 26.8-23.8 9-6.5 26.3-16.3 27.1-15.4.3.4 7.9 13.7 16.9 29.7zm189.6 50.1c12.6 7.7 15 25.3 4.8 35.8-4.5 4.6-8.3 6.6-14.4 7.3-6.8.8-13.2-1.2-18.4-5.8-12.8-11.3-9.4-32.3 6.4-39.4 5.8-2.5 15.7-1.6 21.6 2.1zm-51.7 14.1c-.9 5.7.5 16.2 3 21.8 1 2.2 3.4 6 5.3 8.5l3.4 4.5-.5 10.5-.6 10.5-9.4 6.3c-15.9 10.5-34.4 23.8-48.8 34.9l-13.7 10.5-2.9-3.3c-9.9-11.7-32-50.5-34.2-59.9-.6-2.4 0-2.8 12.7-8 21.5-8.7 40.9-17.6 64.3-29.6 12.1-6.2 22-11.3 22.1-11.3 0-.1-.3 2-.7 4.6zm94.9 22.8c.2.2-1.4 1.3-3.6 2.4-4.6 2.3-5.2 3.5-5.2 10.2 0 2.7-.2 4.9-.5 4.9s-4.1-1.8-8.5-4l-7.9-4 3.4-5.6c1.9-3.1 3.9-7.2 4.5-9l1.1-3.4 8.2 4.1c4.5 2.3 8.4 4.3 8.5 4.4zm-47.8 30c0 10.5-.6 11.4-5.5 8.1-4.6-3.2-6.7-3.2-11.2-.5-1.9 1.2-3.6 2-3.8 1.8-.2-.2-.1-4.3.2-9l.6-8.6 9.8.1 9.9.1v8zm-150.9 18.4c4 8 11 20 15.6 26.9l8.2 12.4-3.1 2.6c-1.8 1.5-3.6 2.7-4.2 2.7-1.2 0-8.9-10.7-16.1-22.6-5.4-9-16.5-30.9-16.5-32.6 0-.7 8.1-4.4 8.6-3.9.1 0 3.5 6.6 7.5 14.5z"/></svg>