<svg version="1.0" xmlns="http://www.w3.org/2000/svg" width="682.667" height="682.667" viewBox="0 0 512 512"><path d="M232.3 51.1c-36.5 5.6-71.2 23-97.3 48.9-9.1 9-20 21.7-20 23.3 0 .3 3 2.6 6.6 5.2 6.2 4.5 6.6 4.6 7.9 2.9 9.2-13 25.7-28.9 39.7-38.3 41.2-27.5 89.8-34.2 136.1-18.7 30.5 10.2 59.7 31.8 77.9 57.8 2.3 3.2 4.5 5.8 5 5.8 1.3 0 12.8-7.9 12.8-8.8 0-.4-2.5-4-5.4-8.1C370.1 86.4 333 62.4 290 52.9c-7.6-1.7-13.8-2.2-30.5-2.4-11.5-.2-23.8.1-27.2.6zm213.7 2c-11.7 2.4-23.7 12.4-28.1 23.6-2.1 5.1-2.3 7.5-2.4 20.4v14.5l3.8 7.6c4.3 8.8 10.2 14.6 18.7 18.7 4.7 2.2 6.8 2.6 15 2.6 8.7 0 10.1-.3 16.1-3.2 8.1-4 14-10.2 18.2-19.1 3.1-6.6 3.2-7 3.2-21.2-.1-12.9-.3-15.2-2.4-20.5-3.3-8.2-13.4-18.3-21.1-21.2-6.8-2.6-15.1-3.5-21-2.2zm14.8 17.5c4.9 2 9 6 11.3 10.9 1.5 3.2 1.9 6.4 1.9 15.5 0 10.9-.2 11.8-3 16.7-8.3 14.5-27.7 14.5-36 0-2.8-4.9-3-5.8-3-16.5 0-12.3.9-15.5 5.6-21.1 5.4-6.5 15.3-8.8 23.2-5.5zM47.3 54.8C30.2 60.9 21 75.6 21 96.7c0 4.5.5 10.6 1.1 13.5 3.3 15.8 16 28.3 31.1 30.6 16.7 2.6 32.3-5.9 40.1-21.8 3.2-6.4 3.2-6.6 3.2-21.5 0-13.4-.3-15.6-2.3-20.7-3.1-7.6-10.5-15.6-18.4-19.8-5.5-3-7.4-3.4-14.8-3.7-6.4-.3-9.8.1-13.7 1.5zm21.4 16.9c10.4 5.4 15.2 22.1 10.7 37.2-5.6 19.1-29.7 21.7-38.6 4.2-2.5-4.9-2.8-6.5-2.8-16.1 0-9.4.3-11.2 2.6-15.8 5.4-10.8 17.6-14.9 28.1-9.5zM429.5 144c-8.1 2.9-26.8 10.9-29.3 12.6-1.3.8-3.2 2.9-4.2 4.7-1.9 3-2 5.3-2 40.9 0 36.1.1 37.9 1.9 39.7 1.1 1.1 3.5 2.3 5.3 2.6 1.8.3 26.4.5 54.6.3l51.4-.3 2.4-2.8 2.4-2.8v-35.4c0-22.6-.4-36.4-1.1-38.2-1.9-5.2-6-8.1-21.6-15.4-15.4-7.2-19.9-8.3-23-5.8-.8.7-3.5 5.4-6 10.3-7.9 15.7-6.6 15.5-13.8 1.9-7.5-14-9.1-15.2-17-12.3zm7.5 30c6.5 13.1 9.5 16 15.8 16 6 0 8.6-2.6 15.2-14.9 3.4-6.4 6.5-12 7-12.4.4-.5 5.1 1.2 10.4 3.7l9.6 4.5V228h-85l.2-29.2.3-29.2 9-3.7c5-2.1 9.6-3.9 10.2-3.9.7 0 4 5.4 7.3 12zM17 149.4c-6.9 3.8-12.5 7.7-14 9.6l-2.5 3.3-.3 38.3-.3 38.2 2.5 2.9 2.4 2.8 51.4.3c28.2.2 52.8 0 54.6-.3 1.7-.3 4.1-1.6 5.2-2.7 1.9-2.1 2-3.6 2-39.5 0-39.4-.1-40.4-4.6-44.5-1.1-.9-6.8-4.6-12.9-8.3-13.1-7.9-14.6-8-21.5-.5-5.9 6.4-11.6 9-20 9s-13.2-2.2-20.2-9.4c-3.7-3.7-6.4-5.6-8-5.6-1.2 0-7.5 2.9-13.8 6.4zM43.7 172c14.4 5.4 31.7 2.6 42.5-6.9l3.3-2.9 6.3 3.5 6.2 3.5V228H16l.2-29.8.3-29.7 5.9-3.1 5.9-3.2 5.1 3.9c2.8 2.2 7.4 4.8 10.3 5.9zM410 272.2c-10.1 43-39.3 81.9-77.8 103.9l-9.1 5.1 1.8 3.7c1 2 2.6 5.3 3.5 7.4l1.5 3.8 5.3-2.7c7.8-3.9 21.3-12.9 29.4-19.5 10-8.1 24.7-24 32.7-35 12-16.7 26.9-49.7 29.3-64.8l.6-3.8-6.3-1.2c-3.5-.7-7.1-1.4-8-1.7-1.3-.4-2 .7-2.9 4.8zm-318.8-2.8c-2.9.8-5.5 1.6-5.9 1.9-.3.4.2 3.7 1.2 7.4 5 19 16.6 43.8 28.3 60.3 13.6 19.3 39.5 42.4 59.2 52.9l7.6 4 3.7-7.4 3.7-7.5-4.8-2.4c-2.6-1.3-8.7-5.1-13.7-8.3-32.6-21.6-57-55.6-67.6-94.3-2.5-9-2.2-8.8-11.7-6.6zm153.1 11c-5.7 1.9-10.1 4.7-14.9 9.8-5.5 5.7-8 10.2-9.9 17.3-1.7 6.7-2 22.7-.5 29.3 2.6 11.1 10 20.8 20.2 26.3 6 3.3 6.7 3.4 16.8 3.4 10 0 10.8-.1 16.8-3.4 7.8-4.3 13.5-10.4 17.5-18.9 2.8-6 3.1-7.9 3.5-18.2.7-18.1-2.7-28-12.6-37.2-7.4-6.9-13.1-9.2-23.7-9.5-5.6-.2-10.6.2-13.2 1.1zm22.8 18c2.1 1.5 5.1 4.5 6.6 6.8 2.6 3.8 2.8 5 3.1 16.1.4 12.7-.2 15.6-4.6 21.6-2.9 3.9-11.2 8.1-16.3 8.1-5.4 0-13.9-4.8-17.4-9.8-2.8-4.1-3-5-3.3-16-.2-7 .1-13.2.8-15.5 1.4-4.8 8.7-12.2 13.2-13.6 5.3-1.7 13.5-.6 17.9 2.3zm-55.6 74.5c-4.8 2.2-9.7 7-12.2 12-1.6 3.2-1.8 7.3-2.1 37.7-.3 33.3-.2 34.1 1.8 36.7l2.1 2.7h109.8l2-2.6c2-2.6 2.1-3.8 2.1-35.2 0-22-.4-33.7-1.2-36.4-1.5-5.1-8.2-12.6-13.3-14.9-3.1-1.4-6.5-1.9-15.3-1.9-6.2 0-12.1.4-13.1.9-1 .6-4.9 6.2-8.7 12.5-3.8 6.4-7.1 11.6-7.4 11.6-.3 0-3.6-5.2-7.4-11.6-3.8-6.3-7.7-11.9-8.7-12.5-1-.5-6.9-.9-13.1-.9-8.8 0-12.2.5-15.3 1.9zm28.9 30c7.8 12.9 10.2 16.1 12.6 17 6.2 2.1 8.1.4 18.6-17l9.5-15.9h5.9c4.8 0 6.4.5 8.7 2.4l2.8 2.4.3 27.1.3 27.1h-86.2l.3-27.1.3-27.1 2.8-2.4c2.3-1.9 3.9-2.4 8.7-2.4h5.9l9.5 15.9z"/></svg>