<?xml version="1.0" standalone="no"?>
<!DOCTYPE svg PUBLIC "-//W3C//DTD SVG 20010904//EN"
 "http://www.w3.org/TR/2001/REC-SVG-20010904/DTD/svg10.dtd">
<svg version="1.0" xmlns="http://www.w3.org/2000/svg"
 width="512.000000pt" height="512.000000pt" viewBox="0 0 512.000000 512.000000"
 preserveAspectRatio="xMidYMid meet">

<g transform="translate(0.000000,512.000000) scale(0.100000,-0.100000)"
fill="#000000" stroke="none">
<path d="M2323 4609 c-365 -56 -712 -230 -973 -489 -91 -90 -200 -217 -200
-233 0 -3 30 -26 66 -52 62 -45 66 -46 79 -29 92 130 257 289 397 383 412 275
898 342 1361 187 305 -102 597 -318 779 -578 23 -32 45 -58 50 -58 13 0 128
79 128 88 0 4 -25 40 -54 81 -255 347 -626 587 -1056 682 -76 17 -138 22 -305
24 -115 2 -238 -1 -272 -6z"/>
<path d="M4460 4589 c-117 -24 -237 -124 -281 -236 -21 -51 -23 -75 -24 -204
l0 -145 38 -76 c43 -88 102 -146 187 -187 47 -22 68 -26 150 -26 87 0 101 3
161 32 81 40 140 102 182 191 31 66 32 70 32 212 -1 129 -3 152 -24 205 -33
82 -134 183 -211 212 -68 26 -151 35 -210 22z m148 -175 c49 -20 90 -60 113
-109 15 -32 19 -64 19 -155 0 -109 -2 -118 -30 -167 -83 -145 -277 -145 -360
0 -28 49 -30 58 -30 165 0 123 9 155 56 211 54 65 153 88 232 55z"/>
<path d="M473 4572 c-171 -61 -263 -208 -263 -419 0 -45 5 -106 11 -135 33
-158 160 -283 311 -306 167 -26 323 59 401 218 32 64 32 66 32 215 0 134 -3
156 -23 207 -31 76 -105 156 -184 198 -55 30 -74 34 -148 37 -64 3 -98 -1
-137 -15z m214 -169 c104 -54 152 -221 107 -372 -56 -191 -297 -217 -386 -42
-25 49 -28 65 -28 161 0 94 3 112 26 158 54 108 176 149 281 95z"/>
<path d="M4295 3680 c-81 -29 -268 -109 -293 -126 -13 -8 -32 -29 -42 -47 -19
-30 -20 -53 -20 -409 0 -361 1 -379 19 -397 11 -11 35 -23 53 -26 18 -3 264
-5 546 -3 l514 3 24 28 24 28 0 354 c0 226 -4 364 -11 382 -19 52 -60 81 -216
154 -154 72 -199 83 -230 58 -8 -7 -35 -54 -60 -103 -79 -157 -66 -155 -138
-19 -75 140 -91 152 -170 123z m75 -300 c65 -131 95 -160 158 -160 60 0 86 26
152 149 34 64 65 120 70 124 4 5 51 -12 104 -37 l96 -45 0 -285 0 -286 -425 0
-425 0 2 292 3 292 90 37 c50 21 96 39 102 39 7 0 40 -54 73 -120z"/>
<path d="M170 3626 c-69 -38 -125 -77 -140 -96 l-25 -33 -3 -383 -3 -382 25
-29 24 -28 514 -3 c282 -2 528 0 546 3 17 3 41 16 52 27 19 21 20 36 20 395 0
394 -1 404 -46 445 -11 9 -68 46 -129 83 -131 79 -146 80 -215 5 -59 -64 -116
-90 -200 -90 -84 0 -132 22 -202 94 -37 37 -64 56 -80 56 -12 0 -75 -29 -138
-64z m267 -226 c144 -54 317 -26 425 69 l33 29 63 -35 62 -35 0 -294 0 -294
-430 0 -430 0 2 298 3 297 59 31 59 32 51 -39 c28 -22 74 -48 103 -59z"/>
<path d="M4100 2398 c-101 -430 -393 -819 -778 -1039 l-91 -51 18 -37 c10 -20
26 -53 35 -74 l15 -38 53 27 c78 39 213 129 294 195 100 81 247 240 327 350
120 167 269 497 293 648 l6 38 -63 12 c-35 7 -71 14 -80 17 -13 4 -20 -7 -29
-48z"/>
<path d="M912 2426 c-29 -8 -55 -16 -59 -19 -3 -4 2 -37 12 -74 50 -190 166
-438 283 -603 136 -193 395 -424 592 -529 l76 -40 37 74 37 75 -48 24 c-26 13
-87 51 -137 83 -326 216 -570 556 -676 943 -25 90 -22 88 -117 66z"/>
<path d="M2443 2316 c-57 -19 -101 -47 -149 -98 -55 -57 -80 -102 -99 -173
-17 -67 -20 -227 -5 -293 26 -111 100 -208 202 -263 60 -33 67 -34 168 -34
100 0 108 1 168 34 78 43 135 104 175 189 28 60 31 79 35 182 7 181 -27 280
-126 372 -74 69 -131 92 -237 95 -56 2 -106 -2 -132 -11z m228 -180 c21 -15
51 -45 66 -68 26 -38 28 -50 31 -161 4 -127 -2 -156 -46 -216 -29 -39 -112
-81 -163 -81 -54 0 -139 48 -174 98 -28 41 -30 50 -33 160 -2 70 1 132 8 155
14 48 87 122 132 136 53 17 135 6 179 -23z"/>
<path d="M2115 1391 c-48 -22 -97 -70 -122 -120 -16 -32 -18 -73 -21 -377 -3
-333 -2 -341 18 -367 l21 -27 549 0 549 0 20 26 c20 26 21 38 21 352 0 220 -4
337 -12 364 -15 51 -82 126 -133 149 -31 14 -65 19 -153 19 -62 0 -121 -4
-131 -9 -10 -6 -49 -62 -87 -125 -38 -64 -71 -116 -74 -116 -3 0 -36 52 -74
116 -38 63 -77 119 -87 125 -10 5 -69 9 -131 9 -88 0 -122 -5 -153 -19z m289
-300 c78 -129 102 -161 126 -170 62 -21 81 -4 186 170 l95 159 59 0 c48 0 64
-5 87 -24 l28 -24 3 -271 3 -271 -431 0 -431 0 3 271 3 271 28 24 c23 19 39
24 87 24 l59 0 95 -159z"/>
</g>
</svg>
