<?xml version="1.0" standalone="no"?>
<!DOCTYPE svg PUBLIC "-//W3C//DTD SVG 20010904//EN"
 "http://www.w3.org/TR/2001/REC-SVG-20010904/DTD/svg10.dtd">
<svg version="1.0" xmlns="http://www.w3.org/2000/svg"
 width="512.000000pt" height="512.000000pt" viewBox="0 0 512.000000 512.000000"
 preserveAspectRatio="xMidYMid meet">

<g transform="translate(0.000000,512.000000) scale(0.100000,-0.100000)"
fill="#000000" stroke="none">
<path d="M2515 5110 c-198 -40 -370 -171 -460 -352 -65 -132 -85 -236 -85
-453 0 -193 10 -248 66 -363 44 -90 136 -206 208 -263 30 -24 55 -49 55 -55 2
-26 -32 -46 -128 -74 -249 -74 -360 -162 -411 -328 -27 -86 -29 -329 -4 -372
36 -60 38 -60 428 -60 l356 0 0 -259 c0 -288 7 -262 -70 -276 -19 -4 -73 -25
-120 -47 -114 -55 -230 -168 -283 -278 -56 -115 -70 -184 -65 -320 4 -98 9
-126 35 -191 16 -42 44 -97 61 -123 l32 -46 -247 -258 c-135 -141 -250 -261
-254 -266 -5 -6 -16 -3 -26 6 -35 30 -143 78 -254 112 -99 29 -139 52 -139 76
0 3 25 25 56 49 108 84 217 247 261 387 28 92 25 405 -5 529 -80 323 -329 529
-637 527 -175 -1 -312 -59 -441 -187 -69 -67 -89 -95 -127 -175 -66 -139 -78
-196 -84 -406 -5 -149 -3 -195 12 -259 32 -144 132 -301 262 -412 l63 -52 -23
-25 c-15 -17 -52 -33 -117 -51 -197 -55 -322 -140 -380 -258 -39 -81 -50 -144
-50 -289 0 -131 9 -161 57 -194 26 -17 53 -19 328 -22 165 -2 315 -1 333 3 66
12 95 82 52 125 -19 19 -33 20 -320 20 l-300 0 0 90 c0 118 15 182 54 233 35
46 114 98 186 122 l47 16 192 -115 c106 -64 208 -118 226 -122 58 -11 95 5
294 123 l194 115 68 -27 c96 -37 152 -83 185 -151 25 -50 27 -67 28 -167 l1
-112 -313 -5 c-296 -5 -314 -6 -328 -24 -34 -48 -5 -109 58 -121 18 -3 171 -5
340 -3 292 3 308 4 335 24 56 41 65 74 60 224 -4 109 -9 149 -29 207 l-24 73
254 265 c139 146 255 265 257 265 2 0 24 -14 49 -31 188 -126 448 -130 648 -9
l67 40 158 -162 c87 -90 198 -204 247 -255 l89 -92 -37 -38 c-80 -82 -116
-200 -116 -386 0 -115 14 -158 62 -187 31 -19 50 -20 366 -20 l333 0 24 25
c32 31 32 69 0 100 l-24 25 -307 0 -307 0 6 108 c3 59 11 124 18 145 19 57 81
122 150 156 112 56 104 58 316 -71 l188 -113 66 0 65 0 190 114 c104 63 197
114 207 113 27 -1 141 -56 182 -87 19 -15 47 -52 62 -83 24 -50 28 -71 32
-170 l3 -112 -290 0 c-278 0 -290 -1 -316 -21 -19 -15 -26 -30 -26 -54 0 -24
7 -39 26 -54 26 -20 38 -21 343 -21 346 0 349 1 388 59 21 31 23 45 23 158 0
158 -18 242 -70 322 -68 104 -186 174 -391 230 -43 12 -81 29 -91 41 -16 19
-13 24 86 123 109 107 157 181 204 306 22 57 26 88 30 222 9 327 -49 518 -208
678 -76 76 -148 121 -252 159 -63 22 -89 26 -193 27 -106 0 -130 -3 -200 -28
-254 -87 -421 -312 -455 -612 -39 -354 20 -548 231 -757 96 -94 98 -97 81
-117 -11 -13 -56 -32 -121 -52 -58 -16 -113 -35 -124 -41 -17 -9 -44 16 -221
198 -111 115 -228 237 -261 272 l-59 63 18 27 c32 50 83 167 97 222 18 74 16
221 -4 297 -34 131 -120 265 -219 341 -84 64 -161 99 -280 126 l-28 6 0 260 0
260 365 0 c395 0 404 1 439 54 23 36 23 298 0 377 -32 108 -114 204 -224 259
-53 26 -171 68 -255 89 -22 6 -46 20 -54 32 -12 21 -8 26 63 91 118 108 208
248 241 375 21 80 21 396 0 498 -46 220 -175 395 -360 486 -123 61 -270 83
-390 59z m196 -150 c148 -28 285 -133 353 -272 32 -64 72 -206 61 -216 -2 -2
-30 21 -63 51 -33 31 -74 63 -91 71 -43 23 -112 20 -219 -9 -116 -31 -134 -31
-250 0 -100 27 -164 31 -208 15 -15 -6 -54 -35 -86 -65 -33 -30 -63 -55 -69
-55 -29 0 21 169 75 255 110 172 307 261 497 225z m-229 -525 c116 -31 168
-31 288 0 52 14 103 25 113 25 11 0 44 -23 75 -50 50 -45 100 -75 156 -94 17
-6 18 -16 14 -114 -3 -99 -6 -113 -40 -182 -73 -150 -233 -298 -365 -336 -196
-57 -431 84 -556 335 -39 79 -42 90 -45 185 l-4 101 55 23 c31 13 81 47 113
77 33 30 69 54 81 55 12 0 64 -11 115 -25z m22 -900 c27 -8 81 -15 121 -15 40
0 94 7 121 15 27 8 54 15 60 15 8 0 74 -83 74 -94 0 -8 -240 -146 -254 -146
-11 0 -236 128 -254 145 -6 5 63 94 73 94 6 1 32 -6 59 -14z m-159 -241 c226
-136 228 -137 294 -132 51 4 75 15 244 117 205 123 199 121 287 83 70 -31 126
-77 157 -129 26 -44 28 -57 32 -170 l3 -123 -736 0 -736 0 0 98 c0 191 44 261
209 328 31 13 63 24 71 24 8 0 87 -43 175 -96z m-1315 -1054 c167 -49 292
-187 340 -376 11 -42 20 -81 20 -86 0 -17 -19 -6 -78 47 -63 58 -114 85 -157
85 -15 0 -81 -14 -147 -31 l-121 -30 -118 30 c-65 17 -132 31 -149 31 -49 0
-94 -24 -162 -86 -72 -67 -79 -62 -54 36 56 219 218 371 426 399 69 9 118 5
200 -19z m3315 -75 c179 -47 319 -193 371 -387 28 -106 17 -111 -65 -34 -31
30 -69 60 -84 65 -45 17 -115 13 -215 -14 -115 -31 -125 -31 -240 0 -98 26
-173 32 -216 16 -13 -6 -55 -38 -92 -71 -38 -34 -70 -58 -72 -52 -1 5 4 40 13
78 67 288 336 467 600 399z m-1594 -65 c82 -25 128 -54 196 -121 190 -188 183
-506 -16 -692 -232 -217 -600 -143 -738 148 -32 68 -37 88 -41 175 -7 151 27
254 119 354 126 138 308 190 480 136z m-2026 -364 c150 -41 160 -41 305 -6
l131 32 54 -51 c30 -29 85 -66 121 -83 l67 -31 -6 -87 c-3 -47 -14 -111 -24
-142 -77 -226 -334 -426 -519 -403 -120 15 -278 122 -370 250 -71 100 -96 172
-102 290 l-4 100 50 18 c32 11 74 39 116 77 37 33 72 60 79 60 6 0 53 -11 102
-24z m3837 -112 c56 -50 108 -82 161 -98 14 -4 17 -18 17 -79 0 -154 -52 -269
-180 -398 -66 -67 -102 -94 -165 -125 -73 -36 -85 -39 -165 -39 -81 0 -92 3
-164 39 -137 70 -264 210 -315 350 -13 35 -24 95 -28 150 l-6 91 57 24 c33 14
82 46 116 77 38 36 66 54 83 54 14 0 68 -11 119 -25 118 -32 158 -31 293 4 61
16 111 30 112 30 1 1 31 -24 65 -55z m-3812 -789 c75 -26 166 -29 250 -6 68
18 76 18 85 4 6 -9 22 -31 38 -48 l27 -33 -128 -76 c-70 -42 -131 -76 -135
-76 -3 0 -62 34 -131 76 l-126 75 37 50 c21 27 38 49 39 49 1 0 21 -7 44 -15z
m3500 -102 c47 2 104 11 128 19 41 15 43 15 53 -6 6 -11 23 -33 37 -48 14 -15
24 -29 21 -31 -21 -18 -248 -147 -258 -147 -11 0 -215 117 -248 143 -10 7 -4
19 22 50 19 22 35 44 35 48 0 4 28 -2 63 -13 48 -15 81 -19 147 -15z"/>
<path d="M2747 1868 c-18 -17 -188 -221 -214 -257 -1 -2 -24 15 -51 38 -87 72
-163 47 -154 -51 1 -9 41 -51 89 -93 91 -78 127 -92 166 -62 8 6 77 86 151
177 111 136 135 171 136 198 0 65 -74 95 -123 50z"/>
</g>
</svg>
