<svg version="1.0" xmlns="http://www.w3.org/2000/svg" width="682.667" height="682.667" viewBox="0 0 512 512"><path d="M251.5 1c-19.8 4-37 17.1-46 35.2-6.5 13.2-8.5 23.6-8.5 45.3 0 19.3 1 24.8 6.6 36.3 4.4 9 13.6 20.6 20.8 26.3 3 2.4 5.5 4.9 5.5 5.5.2 2.6-3.2 4.6-12.8 7.4-24.9 7.4-36 16.2-41.1 32.8-2.7 8.6-2.9 32.9-.4 37.2 3.6 6 3.8 6 42.8 6H254v25.9c0 28.8.7 26.2-7 27.6-1.9.4-7.3 2.5-12 4.7-11.4 5.5-23 16.8-28.3 27.8-5.6 11.5-7 18.4-6.5 32 .4 9.8.9 12.6 3.5 19.1 1.6 4.2 4.4 9.7 6.1 12.3l3.2 4.6-24.7 25.8c-13.5 14.1-25 26.1-25.4 26.6-.5.6-1.6.3-2.6-.6-3.5-3-14.3-7.8-25.4-11.2-9.9-2.9-13.9-5.2-13.9-7.6 0-.3 2.5-2.5 5.6-4.9 10.8-8.4 21.7-24.7 26.1-38.7 2.8-9.2 2.5-40.5-.5-52.9-8-32.3-32.9-52.9-63.7-52.7-17.5.1-31.2 5.9-44.1 18.7-6.9 6.7-8.9 9.5-12.7 17.5-6.6 13.9-7.8 19.6-8.4 40.6-.5 14.9-.3 19.5 1.2 25.9 3.2 14.4 13.2 30.1 26.2 41.2l6.3 5.2-2.3 2.5c-1.5 1.7-5.2 3.3-11.7 5.1-19.7 5.5-32.2 14-38 25.8-3.9 8.1-5 14.4-5 28.9 0 13.1.9 16.1 5.7 19.4 2.6 1.7 5.3 1.9 32.8 2.2 16.5.2 31.5.1 33.3-.3 6.6-1.2 9.5-8.2 5.2-12.5-1.9-1.9-3.3-2-32-2H15v-9c0-11.8 1.5-18.2 5.4-23.3 3.5-4.6 11.4-9.8 18.6-12.2l4.7-1.6 19.2 11.5c10.6 6.4 20.8 11.8 22.6 12.2 5.8 1.1 9.5-.5 29.4-12.3l19.4-11.5 6.8 2.7c9.6 3.7 15.2 8.3 18.5 15.1 2.5 5 2.7 6.7 2.8 16.7l.1 11.2-31.3.5c-29.6.5-31.4.6-32.8 2.4-3.4 4.8-.5 10.9 5.8 12.1 1.8.3 17.1.5 34 .3 29.2-.3 30.8-.4 33.5-2.4 5.6-4.1 6.5-7.4 6-22.4-.4-10.9-.9-14.9-2.9-20.7l-2.4-7.3 25.4-26.5c13.9-14.6 25.5-26.5 25.7-26.5.2 0 2.4 1.4 4.9 3.1 18.8 12.6 44.8 13 64.8.9l6.7-4 15.8 16.2c8.7 9 19.8 20.4 24.7 25.5l8.9 9.2-3.7 3.8c-8 8.2-11.6 20-11.6 38.6 0 11.5 1.4 15.8 6.2 18.7 3.1 1.9 5 2 36.6 2h33.3l2.4-2.5c3.2-3.1 3.2-6.9 0-10l-2.4-2.5h-61.4l.6-10.8c.3-5.9 1.1-12.4 1.8-14.5 1.9-5.7 8.1-12.2 15-15.6 11.2-5.6 10.4-5.8 31.6 7.1l18.8 11.3h13.1l19-11.4c10.4-6.3 19.7-11.4 20.7-11.3 2.7.1 14.1 5.6 18.2 8.7 1.9 1.5 4.7 5.2 6.2 8.3 2.4 5 2.8 7.1 3.2 17l.3 11.2h-29c-27.8 0-29 .1-31.6 2.1-1.9 1.5-2.6 3-2.6 5.4 0 2.4.7 3.9 2.6 5.4 2.6 2 3.8 2.1 34.3 2.1 34.6 0 34.9-.1 38.8-5.9 2.1-3.1 2.3-4.5 2.3-15.8 0-15.8-1.8-24.2-7-32.2-6.8-10.4-18.6-17.4-39.1-23-4.3-1.2-8.1-2.9-9.1-4.1-1.6-1.9-1.3-2.4 8.6-12.3 10.9-10.7 15.7-18.1 20.4-30.6 2.2-5.7 2.6-8.8 3-22.2.9-32.7-4.9-51.8-20.8-67.8-7.6-7.6-14.8-12.1-25.2-15.9-6.3-2.2-8.9-2.6-19.3-2.7-10.6 0-13 .3-20 2.8-25.4 8.7-42.1 31.2-45.5 61.2-3.9 35.4 2 54.8 23.1 75.7 9.6 9.4 9.8 9.7 8.1 11.7-1.1 1.3-5.6 3.2-12.1 5.2-5.8 1.6-11.3 3.5-12.4 4.1-1.7.9-4.4-1.6-22.1-19.8-11.1-11.5-22.8-23.7-26.1-27.2l-5.9-6.3 1.8-2.7c3.2-5 8.3-16.7 9.7-22.2 1.8-7.4 1.6-22.1-.4-29.7-3.4-13.1-12-26.5-21.9-34.1-8.4-6.4-16.1-9.9-28-12.6l-2.8-.6v-52h36.5c39.5 0 40.4-.1 43.9-5.4 2.3-3.6 2.3-29.8 0-37.7-3.2-10.8-11.4-20.4-22.4-25.9-5.3-2.6-17.1-6.8-25.5-8.9-2.2-.6-4.6-2-5.4-3.2-1.2-2.1-.8-2.6 6.3-9.1 11.8-10.8 20.8-24.8 24.1-37.5 2.1-8 2.1-39.6 0-49.8-4.6-22-17.5-39.5-36-48.6-12.3-6.1-27-8.3-39-5.9zm19.6 15c14.8 2.8 28.5 13.3 35.3 27.2 3.2 6.4 7.2 20.6 6.1 21.6-.2.2-3-2.1-6.3-5.1-3.3-3.1-7.4-6.3-9.1-7.1-4.3-2.3-11.2-2-21.9.9-11.6 3.1-13.4 3.1-25 0-10-2.7-16.4-3.1-20.8-1.5-1.5.6-5.4 3.5-8.6 6.5-3.3 3-6.3 5.5-6.9 5.5-2.9 0 2.1-16.9 7.5-25.5 11-17.2 30.7-26.1 49.7-22.5zm-22.9 52.5c11.6 3.1 16.8 3.1 28.8 0 5.2-1.4 10.3-2.5 11.3-2.5 1.1 0 4.4 2.3 7.5 5 5 4.5 10 7.5 15.6 9.4 1.7.6 1.8 1.6 1.4 11.4-.3 9.9-.6 11.3-4 18.2-7.3 15-23.3 29.8-36.5 33.6-19.6 5.7-43.1-8.4-55.6-33.5-3.9-7.9-4.2-9-4.5-18.5l-.4-10.1 5.5-2.3c3.1-1.3 8.1-4.7 11.3-7.7 3.3-3 6.9-5.4 8.1-5.5 1.2 0 6.4 1.1 11.5 2.5zm2.2 90c2.7.8 8.1 1.5 12.1 1.5s9.4-.7 12.1-1.5c2.7-.8 5.4-1.5 6-1.5.8 0 7.4 8.3 7.4 9.4 0 .8-24 14.6-25.4 14.6-1.1 0-23.6-12.8-25.4-14.5-.6-.5 6.3-9.4 7.3-9.4.6-.1 3.2.6 5.9 1.4zm-15.9 24.1c22.6 13.6 22.8 13.7 29.4 13.2 5.1-.4 7.5-1.5 24.4-11.7 20.5-12.3 19.9-12.1 28.7-8.3 7 3.1 12.6 7.7 15.7 12.9 2.6 4.4 2.8 5.7 3.2 17l.3 12.3H189v-9.8c0-19.1 4.4-26.1 20.9-32.8 3.1-1.3 6.3-2.4 7.1-2.4.8 0 8.7 4.3 17.5 9.6zM103 288c16.7 4.9 29.2 18.7 34 37.6 1.1 4.2 2 8.1 2 8.6 0 1.7-1.9.6-7.8-4.7-6.3-5.8-11.4-8.5-15.7-8.5-1.5 0-8.1 1.4-14.7 3.1l-12.1 3-11.8-3c-6.5-1.7-13.2-3.1-14.9-3.1-4.9 0-9.4 2.4-16.2 8.6-7.2 6.7-7.9 6.2-5.4-3.6 5.6-21.9 21.8-37.1 42.6-39.9 6.9-.9 11.8-.5 20 1.9zm331.5 7.5c17.9 4.7 31.9 19.3 37.1 38.7 2.8 10.6 1.7 11.1-6.5 3.4-3.1-3-6.9-6-8.4-6.5-4.5-1.7-11.5-1.3-21.5 1.4-11.5 3.1-12.5 3.1-24 0-9.8-2.6-17.3-3.2-21.6-1.6-1.3.6-5.5 3.8-9.2 7.1-3.8 3.4-7 5.8-7.2 5.2-.1-.5.4-4 1.3-7.8 6.7-28.8 33.6-46.7 60-39.9zM275.1 302c8.2 2.5 12.8 5.4 19.6 12.1 19 18.8 18.3 50.6-1.6 69.2-23.2 21.7-60 14.3-73.8-14.8-3.2-6.8-3.7-8.8-4.1-17.5-.7-15.1 2.7-25.4 11.9-35.4 12.6-13.8 30.8-19 48-13.6zM72.5 338.4c15 4.1 16 4.1 30.5.6l13.1-3.2 5.4 5.1c3 2.9 8.5 6.6 12.1 8.3l6.7 3.1-.6 8.7c-.3 4.7-1.4 11.1-2.4 14.2-7.7 22.6-33.4 42.6-51.9 40.3-12-1.5-27.8-12.2-37-25-7.1-10-9.6-17.2-10.2-29l-.4-10 5-1.8c3.2-1.1 7.4-3.9 11.6-7.7 3.7-3.3 7.2-6 7.9-6 .6 0 5.3 1.1 10.2 2.4zm383.7 11.2c5.6 5 10.8 8.2 16.1 9.8 1.4.4 1.7 1.8 1.7 7.9 0 15.4-5.2 26.9-18 39.8-6.6 6.7-10.2 9.4-16.5 12.5-7.3 3.6-8.5 3.9-16.5 3.9-8.1 0-9.2-.3-16.4-3.9-13.7-7-26.4-21-31.5-35-1.3-3.5-2.4-9.5-2.8-15l-.6-9.1 5.7-2.4c3.3-1.4 8.2-4.6 11.6-7.7 3.8-3.6 6.6-5.4 8.3-5.4 1.4 0 6.8 1.1 11.9 2.5 11.8 3.2 15.8 3.1 29.3-.4 6.1-1.6 11.1-3 11.2-3 .1-.1 3.1 2.4 6.5 5.5zM75 428.5c7.5 2.6 16.6 2.9 25 .6 6.8-1.8 7.6-1.8 8.5-.4.6.9 2.2 3.1 3.8 4.8l2.7 3.3-12.8 7.6c-7 4.2-13.1 7.6-13.5 7.6-.3 0-6.2-3.4-13.1-7.6L63 436.9l3.7-5c2.1-2.7 3.8-4.9 3.9-4.9.1 0 2.1.7 4.4 1.5zm350 10.2c4.7-.2 10.4-1.1 12.8-1.9 4.1-1.5 4.3-1.5 5.3.6.6 1.1 2.3 3.3 3.7 4.8 1.4 1.5 2.4 2.9 2.1 3.1-2.1 1.8-24.8 14.7-25.8 14.7-1.1 0-21.5-11.7-24.8-14.3-1-.7-.4-1.9 2.2-5 1.9-2.2 3.5-4.4 3.5-4.8 0-.4 2.8.2 6.3 1.3 4.8 1.5 8.1 1.9 14.7 1.5z"/><path d="M274.7 325.2c-1.8 1.7-18.8 22.1-21.4 25.7-.1.2-2.4-1.5-5.1-3.8-8.7-7.2-16.3-4.7-15.4 5.1.1.9 4.1 5.1 8.9 9.3 9.1 7.8 12.7 9.2 16.6 6.2.8-.6 7.7-8.6 15.1-17.7 11.1-13.6 13.5-17.1 13.6-19.8 0-6.5-7.4-9.5-12.3-5z"/></svg>