<svg version="1.0" xmlns="http://www.w3.org/2000/svg" width="682.667" height="682.667" viewBox="0 0 512 512"><path d="M214 17.1c-21.2 9.4-39.3 18-40.2 19.1-2.4 2.7-2.3 5.9.3 9.2 1.3 1.7 3 2.6 4.8 2.6 1.6 0 19.6-7.4 40-16.5l37.2-16.6 64.5 28.7C356 59.3 385 72.6 385 73c0 .7-44.7 21-46.2 21-.5 0-.8-3.4-.8-7.5 0-9.2-1.6-13.3-6.6-17.1l-3.7-2.9H184.3l-3.7 2.9c-5 3.8-6.6 7.9-6.6 17.1 0 4.1-.3 7.5-.6 7.5C172 94 127 73.6 127 73c0-.3 6.3-3.5 14-6.9 7.7-3.5 14.5-7.2 15-8.2 2.7-4.9-.7-10.9-6-10.9-4.7 0-29.9 11.6-34 15.6-3.3 3.3-3.5 3.8-3.5 10.3 0 5.2.4 7.4 1.7 8.8 1.5 1.6 1.8 4 1.8 14.5v12.6l-3 1.2c-4 1.7-10.4 8.8-12.1 13.6-.9 2.5-1.4 8.3-1.4 16.4 0 14 1 17.1 6.7 21.2 3.1 2.1 4.2 2.3 17.3 2.3 13.1 0 14.2-.2 17.3-2.3 5.7-4.1 6.7-7.2 6.7-21.2 0-8.1-.5-13.9-1.4-16.4-1.7-4.8-8.1-11.9-12.1-13.6-3-1.2-3-1.3-3-9.6 0-7.4.2-8.3 1.7-7.7.9.4 10.5 4.6 21.3 9.4l19.5 8.7.5 18.4c.5 18.4.5 18.5 3.5 23.4 1.9 3 4.9 6 7.9 7.9l4.9 3h131.4l4.9-3c3-1.9 6-4.9 7.9-7.9 3-4.9 3-5 3.5-23.4l.5-18.4 27-11.9C396.8 85 399 83.5 399.8 74.7c.5-6.2-1.5-11.6-5.3-14.1-1.3-.9-32.2-14.8-68.7-31.1C279.1 8.7 258.5 0 256 0c-2.3 0-16.4 5.8-42 17.1zm109 81.4V116H189V81h134v17.5zm-192.9 27.1c2.2 2.4 2.4 3.3 2.4 12.7v10.2h-18l-.3-7c-.4-8.8.3-12.6 2.9-15.9 2.9-3.7 9.5-3.7 13 0zM323 137.4c0 5.5-.3 6.7-2.6 9l-2.7 2.6h-61.6c-46.8-.1-62-.4-63.2-1.3-2.7-2.1-3.9-5.4-3.9-11.1V131h134v6.4zm-75.9 45.7c-6.7 1.3-16.5 6.3-21.6 11l-4.7 4.3-34.6-3.3c-19.1-1.8-45.9-4.3-59.7-5.6-64.4-6.1-63.7-6.1-68.9-4.1-10.4 4-15.3 11.3-16.3 24.4l-.6 8-7.1-.5c-6-.5-8-.2-12.4 1.7-5.5 2.4-10.6 7.3-12.8 12.5-.7 1.7-2 7.4-2.9 12.6-6.6 37.9-7.1 75.8-1.5 114 2.6 17.7 4.3 23.1 8.8 28.1 7.2 8 13.4 9.1 36.2 6.3 10.4-1.2 11.7-1.6 13.8-4.1 2.6-3 2.4-6.4-.6-9.8-1.5-1.6-2.7-1.8-9.7-1.2-26.2 2-25.8 2.1-28.3-.7-1.9-2-2.8-5.2-4.7-16.8-6.1-37.3-5.7-79.5 1-114.5 1.6-8.5 3.4-11.9 6.6-12.9 2.1-.7 125.2 12.4 127 13.5.5.3 1 4.5 1.1 9.2l.3 8.6-7.7 8c-10.9 11.2-14.1 18.2-14.6 31.7-.3 8.3 0 11.1 1.8 16.4 2.7 8.2 8 16.1 13.8 20.9 6.1 5 7.2 8 6.5 17.5-.5 7-.8 7.7-2.7 7.7-1.2 0-17.1 1.8-35.3 3.9C80.7 374 80 374.2 80 380.7c0 4.1 3 7.3 6.9 7.3 1.6 0 17.1-1.6 34.6-3.6 17.4-1.9 32.3-3.4 33.1-3.2.9.2-5.2 11.5-18.3 34.2-21.6 37.3-22.2 38.9-18.4 46.5 1.2 2.3 3.5 5 5.1 6 1.7 1 11.2 3.5 21.2 5.5 10.1 2.1 19.2 4 20.4 4.4 1.1.4 7.7 7.1 14.7 14.9 6.9 7.7 13.8 15 15.3 16.2 5.8 4.6 14.6 3.6 20-2.1 1.7-1.8 11.5-18 21.9-36.1 10.3-18 19.1-32.7 19.5-32.7.5 0 9.3 14.7 19.6 32.7 10.3 18.1 20.4 34.5 22.4 36.5 2.3 2.3 5 3.9 7.4 4.3 3.9.8 9.9-.5 12.6-2.8 1.2-.9 24-26.3 26.9-29.9.4-.4 9.6-2.6 20.6-4.8 11-2.3 21.2-4.8 22.6-5.6 4.8-2.4 7.4-7.2 7.4-13.4 0-5.3-.6-6.6-19.2-38.8-10.6-18.2-19.3-33.6-19.3-34 0-.4 26.4 2 58.8 5.5 32.3 3.4 61.6 6.2 65.2 6.2 8 .1 13.2-2.1 18.2-7.7 4.5-5 6.2-10.4 8.8-28.1 5.5-37.6 5.1-74.3-1.1-111.5-1.1-6.5-2.6-13.3-3.3-15.1-2.2-5.2-7.2-10.1-12.8-12.5-4.4-1.9-6.4-2.2-12.5-1.7l-7.3.5V213c0-7.8-1.9-14.8-5.3-19.3-3.6-4.7-12.3-9.7-17.1-9.7-1.7 0-37.8 3.2-80.3 7.2l-77.1 7.2-4.7-4.3c-10.2-9.4-25.6-13.7-39.4-11zm21.7 16.9c2.6 1.2 7.5 5 11.4 9 9.6 9.8 10.9 10.3 26.3 11 10.7.5 13.8 1 17.3 2.9 6.5 3.4 11.8 8.7 14.9 14.9 2.5 5 2.8 6.8 2.8 16.7.2 13.9 1.8 17.8 10.7 26.4 9.3 8.9 11.3 13.3 11.3 25.1 0 11.7-1.5 15-11 24.2-9.4 9.1-10.9 12.7-11 26.3 0 9.7-.4 11.7-2.6 16.6-3.1 6.5-8.2 12-14.2 15.1-3.5 1.8-6.5 2.3-17.3 2.8-15.3.7-18 1.8-27.8 11.9-7.1 7.3-12.7 10.2-21.1 10.8-10.4.9-16.4-1.6-26-10.8-11.1-10.6-12.4-11.1-28-11.9-10.3-.5-13.8-1.1-17-2.7-5.8-3-11.4-9-14.4-15.3-2.2-4.8-2.6-6.9-2.6-16.5-.2-13.8-1.2-16.4-10.9-26.4-9.4-9.7-10.8-12.6-11.4-22.7-.6-11 2.3-17.6 11.5-26.3 9-8.6 10.7-12.7 10.8-26.7.1-9.9.4-11.6 2.8-16.6 3.1-6.2 8.4-11.6 14.9-14.9 3.5-1.9 6.6-2.4 17.3-2.9 15.3-.7 17.2-1.4 25.4-10.2 3.1-3.2 7.2-6.9 9.1-8.1 8-5 19.7-5.7 28.8-1.7zm-147.3 4.1c30.3 2.8 55.7 5.3 56.5 5.6 1.2.4.9.9-1 2.1-4.9 3.3-12.2 10.7-14.7 14.9-1.4 2.4-2.8 4.3-3.1 4.3-2.1 0-100.9-11.1-101.9-11.5-1.8-.6-1.7-10.7.1-14.9 1.5-3.6 3.9-5.5 7.1-5.6 1.1 0 26.8 2.3 57 5.1zm329.7-4c1.1.6 2.6 2.6 3.4 4.4 1.8 4.3 1.9 14.4.2 15-1.6.5-97.4 10.5-100.9 10.5-1.8 0-2.9-.8-3.7-2.5-1.5-3.3-8.8-11.1-13.6-14.6-2.5-1.9-3.4-3-2.5-3.3.8-.2 14.7-1.6 30.9-3.1s39.6-3.7 52-5c26.5-2.7 31.4-2.9 34.2-1.4zm36.2 34.3c2.6 2.5 3.6 6.6 6.1 23 5 34 4.3 72.5-2 108.6-1.8 10.2-4.1 13-10.7 13-4.2 0-117.5-11.7-121.4-12.5-1.9-.4-2.2-1.4-2.7-8.2-.7-9.5.4-12.5 6.5-17.5 5.8-4.8 11.1-12.7 13.8-20.9 1.8-5.3 2.1-8.1 1.8-16.4-.5-13.5-3.7-20.5-14.6-31.7l-7.7-8 .3-9.1c.1-5 .4-9.2.5-9.4.2-.1 15.6-1.9 34.3-3.9 18.6-2 45.4-4.8 59.4-6.4 32.9-3.6 33.5-3.6 36.4-.6zM176.7 399.2l5.2 3.4-16.1 28c-8.8 15.3-16.2 28.1-16.4 28.2-.1.2-4.2-.5-9.1-1.5-6.1-1.4-8.7-2.4-8.5-3.3.2-.8 8.2-15 17.9-31.7l17.5-30.4 2.2 2c1.1 1 4.4 3.5 7.3 5.3zM363.4 424c9.6 16.7 17.2 30.8 16.8 31.1-.8.8-17.2 4.2-17.6 3.7-.2-.2-7.6-12.9-16.4-28.3l-16.1-27.9 5.8-3.8c3.2-2.1 6.4-4.5 7.1-5.3.7-.9 1.7-1.2 2.1-.8.4.4 8.6 14.5 18.3 31.3zm-148.8-16.7c2.1 1.2 1.7 2.1-15.8 32.4l-18 31.3-4-3.4c-2.2-1.9-5.6-3.9-7.6-4.4-2.1-.5-3.6-1.3-3.5-1.8.1-.6 7.2-13.2 15.9-28.2l15.7-27.2h7.6c4.2.1 8.6.6 9.7 1.3zm115.8 25.9c8.7 14.9 15.8 27.6 15.9 28.1.1.6-1.4 1.4-3.5 1.9-2 .5-5.4 2.5-7.6 4.3l-3.9 3.4-18.1-31.2c-20.6-35.8-20.2-33.6-6.1-33.7h7.6l15.7 27.2zM231 421.7c1.3.9 4.7 2.6 7.6 3.8l5.3 2.2-19.5 33.9c-10.8 18.6-19.9 34.3-20.3 34.7-.5.4-3.6-2.3-7-6.1l-6.1-7 18.2-31.6c10.1-17.4 18.5-31.6 18.8-31.6.3 0 1.6.8 3 1.7zm71.8 29.9l18.3 31.7-5.9 6.6c-3.3 3.6-6.3 6.5-6.8 6.5-.4-.1-9.7-15.6-20.5-34.5l-19.7-34.3 5.2-2.1c2.9-1.2 6.3-2.9 7.6-3.8 1.4-.9 2.7-1.7 3-1.7.3 0 8.8 14.2 18.8 31.6z"/><path d="M241 233.5c-37.5 8-63.2 44-58 81.4 2.4 17.7 9.9 32.1 23.1 44.5 9.1 8.6 21.5 15.4 32.9 18 9.4 2.3 25.9 2.1 35.4-.4 35.9-9.1 60.3-46.1 54.4-82.1-2.7-16.6-8.9-28.9-20.8-40.9-7.4-7.6-16.1-13.5-25.1-17-12-4.8-29.1-6.2-41.9-3.5zm29.5 15.5c32.2 8.2 51.2 41.5 41.8 73.3-2.6 9.1-7.4 16.9-15.3 24.7-11.8 11.8-24.3 17-41 17-16.6 0-29.2-5.2-41-17-12.4-12.4-17.4-24.3-17.4-41.5 0-8.6.4-11.2 3.1-18.7 10.3-29.3 40-45.4 69.8-37.8z"/><path d="M246.6 266c-6.5 1.7-15.3 7-20.2 12.2-18.6 19.9-12.4 51.8 12.5 64.1 6.1 3 7.3 3.2 17.1 3.2 9.9 0 10.9-.2 17.2-3.3 31.3-15.4 30.8-58.6-.7-73.4-7.2-3.3-18.7-4.6-25.9-2.8zm17.6 15.6c18.4 6.2 23.2 29.7 8.8 42.7-5.2 4.7-10.3 6.7-17 6.7-6.7 0-11.8-2-17-6.7-20.4-18.3-.7-51.6 25.2-42.7z"/><path d="M249.6 300.2c-3.6 3.3-3.9 7.5-.6 10.8 1.5 1.5 3.3 2 6.9 2 6.2 0 9.4-2.4 9.4-7 0-7.1-10.1-10.8-15.7-5.8z"/></svg>