<?xml version="1.0" standalone="no"?>
<!DOCTYPE svg PUBLIC "-//W3C//DTD SVG 20010904//EN"
 "http://www.w3.org/TR/2001/REC-SVG-20010904/DTD/svg10.dtd">
<svg version="1.0" xmlns="http://www.w3.org/2000/svg"
 width="512.000000pt" height="512.000000pt" viewBox="0 0 512.000000 512.000000"
 preserveAspectRatio="xMidYMid meet">

<g transform="translate(0.000000,512.000000) scale(0.100000,-0.100000)"
fill="#000000" stroke="none">
<path d="M2140 4949 c-212 -94 -393 -180 -402 -191 -24 -27 -23 -59 3 -92 13
-17 30 -26 48 -26 16 0 196 74 400 165 l372 166 645 -287 c354 -157 644 -290
644 -294 0 -7 -447 -210 -462 -210 -5 0 -8 34 -8 75 0 92 -16 133 -66 171
l-37 29 -717 0 -717 0 -37 -29 c-50 -38 -66 -79 -66 -171 0 -41 -3 -75 -6 -75
-14 0 -464 204 -464 210 0 3 63 35 140 69 77 35 145 72 150 82 27 49 -7 109
-60 109 -47 0 -299 -116 -340 -156 -33 -33 -35 -38 -35 -103 0 -52 4 -74 17
-88 15 -16 18 -40 18 -145 l0 -126 -30 -12 c-40 -17 -104 -88 -121 -136 -9
-25 -14 -83 -14 -164 0 -140 10 -171 67 -212 31 -21 42 -23 173 -23 131 0 142
2 173 23 57 41 67 72 67 212 0 81 -5 139 -14 164 -17 48 -81 119 -121 136 -30
12 -30 13 -30 96 0 74 2 83 17 77 9 -4 105 -46 213 -94 l195 -87 5 -184 c5
-184 5 -185 35 -234 19 -30 49 -60 79 -79 l49 -30 657 0 657 0 49 30 c30 19
60 49 79 79 30 49 30 50 35 234 l5 184 270 119 c313 139 335 154 343 242 5 62
-15 116 -53 141 -13 9 -322 148 -687 311 -467 208 -673 295 -698 295 -23 0
-164 -58 -420 -171z m1090 -814 l0 -175 -670 0 -670 0 0 175 0 175 670 0 670
0 0 -175z m-1929 -271 c22 -24 24 -33 24 -127 l0 -102 -90 0 -90 0 -3 70 c-4
88 3 126 29 159 29 37 95 37 130 0z m1929 -118 c0 -55 -3 -67 -26 -90 l-27
-26 -616 0 c-468 1 -620 4 -632 13 -27 21 -39 54 -39 111 l0 56 670 0 670 0 0
-64z"/>
<path d="M2471 3289 c-67 -13 -165 -63 -216 -110 l-47 -43 -346 33 c-191 18
-459 43 -597 56 -644 61 -637 61 -689 41 -104 -40 -153 -113 -163 -244 l-6
-80 -71 5 c-60 5 -80 2 -124 -17 -55 -24 -106 -73 -128 -125 -7 -17 -20 -74
-29 -126 -66 -379 -71 -758 -15 -1140 26 -177 43 -231 88 -281 72 -80 134 -91
362 -63 104 12 117 16 138 41 26 30 24 64 -6 98 -15 16 -27 18 -97 12 -262
-20 -258 -21 -283 7 -19 20 -28 52 -47 168 -61 373 -57 795 10 1145 16 85 34
119 66 129 21 7 1252 -124 1270 -135 5 -3 10 -45 11 -92 l3 -86 -77 -80 c-109
-112 -141 -182 -146 -317 -3 -83 0 -111 18 -164 27 -82 80 -161 138 -209 61
-50 72 -80 65 -175 -5 -70 -8 -77 -27 -77 -12 0 -171 -18 -353 -39 -366 -41
-373 -43 -373 -108 0 -41 30 -73 69 -73 16 0 171 16 346 36 174 19 323 34 331
32 9 -2 -52 -115 -183 -342 -216 -373 -222 -389 -184 -465 12 -23 35 -50 51
-60 17 -10 112 -35 212 -55 101 -21 192 -40 204 -44 11 -4 77 -71 147 -149 69
-77 138 -150 153 -162 58 -46 146 -36 200 21 17 18 115 180 219 361 103 180
191 327 195 327 5 0 93 -147 196 -327 103 -181 204 -345 224 -365 23 -23 50
-39 74 -43 39 -8 99 5 126 28 12 9 240 263 269 299 4 4 96 26 206 48 110 23
212 48 226 56 48 24 74 72 74 134 0 53 -6 66 -192 388 -106 182 -193 336 -193
340 0 4 264 -20 588 -55 323 -34 616 -62 652 -62 80 -1 132 21 182 77 45 50
62 104 88 281 55 376 51 743 -11 1115 -11 65 -26 133 -33 151 -22 52 -72 101
-128 125 -44 19 -64 22 -125 17 l-73 -5 0 48 c0 78 -19 148 -53 193 -36 47
-123 97 -171 97 -17 0 -378 -32 -803 -72 l-771 -72 -47 43 c-102 94 -256 137
-394 110z m217 -169 c26 -12 75 -50 114 -90 96 -98 109 -103 263 -110 107 -5
138 -10 173 -29 65 -34 118 -87 149 -149 25 -50 28 -68 28 -167 2 -139 18
-178 107 -264 93 -89 113 -133 113 -251 0 -117 -15 -150 -110 -242 -94 -91
-109 -127 -110 -263 0 -97 -4 -117 -26 -166 -31 -65 -82 -120 -142 -151 -35
-18 -65 -23 -173 -28 -153 -7 -180 -18 -278 -119 -71 -73 -127 -102 -211 -108
-104 -9 -164 16 -260 108 -111 106 -124 111 -280 119 -103 5 -138 11 -170 27
-58 30 -114 90 -144 153 -22 48 -26 69 -26 165 -2 138 -12 164 -109 264 -94
97 -108 126 -114 227 -6 110 23 176 115 263 90 86 107 127 108 267 1 99 4 116
28 166 31 62 84 116 149 149 35 19 66 24 173 29 153 7 172 14 254 102 31 32
72 69 91 81 80 50 197 57 288 17z m-1473 -41 c303 -28 557 -53 565 -56 12 -4
9 -9 -10 -21 -49 -33 -122 -107 -147 -149 -14 -24 -28 -43 -31 -43 -21 0
-1009 111 -1019 115 -18 6 -17 107 1 149 15 36 39 55 71 56 11 0 268 -23 570
-51z m3297 40 c11 -6 26 -26 34 -44 18 -43 19 -144 2 -150 -16 -5 -974 -105
-1009 -105 -18 0 -29 8 -37 25 -15 33 -88 111 -136 146 -25 19 -34 30 -25 33
8 2 147 16 309 31 162 15 396 37 520 50 265 27 314 29 342 14z m362 -343 c26
-25 36 -66 61 -230 50 -340 43 -725 -20 -1086 -18 -102 -41 -130 -107 -130
-42 0 -1175 117 -1214 125 -19 4 -22 14 -27 82 -7 95 4 125 65 175 58 48 111
127 138 209 18 53 21 81 18 164 -5 135 -37 205 -146 317 l-77 80 3 91 c1 50 4
92 5 94 2 1 156 19 343 39 186 20 454 48 594 64 329 36 335 36 364 6z m-3107
-1648 l52 -34 -161 -280 c-88 -153 -162 -281 -164 -282 -1 -2 -42 5 -91 15
-61 14 -87 24 -85 33 2 8 82 150 179 317 l175 304 22 -20 c11 -10 44 -35 73
-53z m1867 -248 c96 -167 172 -308 168 -311 -8 -8 -172 -42 -176 -37 -2 2 -76
129 -164 283 l-161 279 58 38 c32 21 64 45 71 53 7 9 17 12 21 8 4 -4 86 -145
183 -313z m-1488 167 c21 -12 17 -21 -158 -324 l-180 -313 -40 34 c-22 19 -56
39 -76 44 -21 5 -36 13 -35 18 1 6 72 132 159 282 l157 272 76 0 c42 -1 86 -6
97 -13z m1158 -259 c87 -149 158 -276 159 -281 1 -6 -14 -14 -35 -19 -20 -5
-54 -25 -76 -43 l-39 -34 -181 312 c-206 358 -202 336 -61 337 l76 0 157 -272z
m-994 115 c13 -9 47 -26 76 -38 l53 -22 -195 -339 c-108 -186 -199 -343 -203
-347 -5 -4 -36 23 -70 61 l-61 70 182 316 c101 174 185 316 188 316 3 0 16 -8
30 -17z m718 -299 l183 -317 -59 -66 c-33 -36 -63 -65 -68 -65 -4 1 -97 156
-205 345 l-197 343 52 21 c29 12 63 29 76 38 14 9 27 17 30 17 3 0 88 -142
188 -316z"/>
<path d="M2410 2785 c-375 -80 -632 -440 -580 -814 24 -177 99 -321 231 -445
91 -86 215 -154 329 -180 94 -23 259 -21 354 4 359 91 603 461 544 821 -27
166 -89 289 -208 409 -74 76 -161 135 -251 170 -120 48 -291 62 -419 35z m295
-155 c322 -82 512 -415 418 -733 -26 -91 -74 -169 -153 -247 -118 -118 -243
-170 -410 -170 -166 0 -292 52 -410 170 -124 124 -174 243 -174 415 0 86 4
112 31 187 103 293 400 454 698 378z"/>
<path d="M2466 2460 c-65 -17 -153 -70 -202 -122 -186 -199 -124 -518 125
-641 61 -30 73 -32 171 -32 99 0 109 2 172 33 313 154 308 586 -7 734 -72 33
-187 46 -259 28z m176 -156 c184 -62 232 -297 88 -427 -52 -47 -103 -67 -170
-67 -67 0 -118 20 -170 67 -204 183 -7 516 252 427z"/>
<path d="M2496 2118 c-36 -33 -39 -75 -6 -108 15 -15 33 -20 69 -20 62 0 94
24 94 70 0 71 -101 108 -157 58z"/>
</g>
</svg>
