<?xml version="1.0" standalone="no"?>
<!DOCTYPE svg PUBLIC "-//W3C//DTD SVG 20010904//EN"
 "http://www.w3.org/TR/2001/REC-SVG-20010904/DTD/svg10.dtd">
<svg version="1.0" xmlns="http://www.w3.org/2000/svg"
 width="512.000000pt" height="512.000000pt" viewBox="0 0 512.000000 512.000000"
 preserveAspectRatio="xMidYMid meet">

<g transform="translate(0.000000,512.000000) scale(0.100000,-0.100000)"
fill="#000000" stroke="none">
<path d="M515 5095 c-25 -24 -25 -25 -25 -227 1 -151 4 -207 14 -220 20 -27
61 -38 137 -38 l69 0 0 -377 0 -378 -33 -27 c-67 -53 -67 -55 -67 -471 l0
-376 -54 -54 c-41 -41 -58 -67 -70 -107 -34 -113 -12 -180 59 -180 46 0 75 32
75 82 0 51 23 94 63 118 28 18 51 20 205 20 l172 0 0 -245 0 -245 -78 0 c-98
0 -213 -28 -298 -74 l-64 -34 0 62 c0 49 -4 67 -20 84 -28 30 -82 30 -110 0
-18 -20 -20 -35 -20 -152 l-1 -131 -39 -60 c-22 -33 -50 -85 -61 -115 -44
-115 -49 -169 -49 -511 l0 -327 -55 -4 c-63 -5 -115 -40 -147 -98 -17 -31 -19
-53 -16 -190 4 -175 12 -203 85 -271 50 -48 85 -65 163 -79 36 -6 89 -15 117
-21 l53 -10 0 -104 c0 -130 20 -192 83 -253 75 -74 112 -82 372 -82 200 0 231
2 277 20 98 37 178 148 178 245 l0 35 1130 0 1130 0 0 -35 c0 -97 80 -208 178
-245 46 -18 77 -20 277 -20 262 0 300 9 373 83 62 63 82 124 82 252 0 58 1
105 3 105 2 0 54 9 116 20 128 23 170 42 222 97 68 70 73 91 77 263 3 137 1
159 -16 190 -32 58 -84 93 -147 98 l-55 4 0 318 c0 241 -4 337 -15 396 -15 76
-64 197 -105 254 -19 27 -20 43 -20 357 0 398 -2 407 -91 495 l-59 58 0 359
c0 197 -3 373 -7 392 -4 20 -24 50 -50 76 l-43 44 0 374 0 375 69 0 c76 0 117
11 137 38 10 13 13 69 14 220 0 202 0 203 -25 227 -23 24 -30 25 -139 25 -138
0 -199 -12 -286 -54 -128 -62 -236 -207 -261 -354 -6 -35 -13 -62 -14 -60 -2
2 -17 43 -34 92 -44 124 -75 177 -141 240 -63 60 -132 99 -217 121 -87 23
-1821 22 -1908 0 -87 -23 -167 -70 -228 -134 -61 -64 -91 -117 -133 -240 l-29
-84 -17 78 c-35 153 -131 280 -258 341 -87 42 -148 54 -286 54 -109 0 -116 -1
-139 -25z m345 -157 c69 -31 131 -93 167 -166 l28 -57 3 -422 3 -423 -100 0
-101 0 0 395 c0 430 0 430 -56 474 -21 17 -41 21 -95 21 l-69 0 0 106 0 107
83 -5 c60 -3 97 -11 137 -30z m900 -53 c0 -108 24 -175 83 -233 59 -58 126
-82 230 -82 98 0 127 17 127 75 0 57 -29 75 -119 75 -129 0 -171 43 -171 175
l0 75 650 0 650 0 0 -75 c0 -88 -16 -127 -63 -155 -30 -19 -52 -20 -363 -20
-318 0 -331 -1 -352 -20 -30 -28 -30 -82 0 -110 21 -19 33 -20 360 -20 386 0
405 3 485 82 59 58 83 125 83 235 l0 86 63 -5 c35 -3 84 -15 109 -26 55 -24
126 -87 151 -134 9 -18 57 -145 106 -283 l88 -250 -658 -3 c-363 -1 -955 -1
-1318 0 l-658 3 88 250 c49 138 96 264 105 280 55 98 164 163 277 164 l47 1 0
-85z m2720 -20 l0 -105 -69 0 c-54 0 -74 -4 -95 -21 -56 -44 -56 -44 -56 -474
l0 -395 -101 0 -100 0 3 423 3 422 28 57 c63 128 172 196 320 197 l67 1 0
-105z m-570 -1620 l0 -875 -60 0 -59 0 -6 38 c-30 178 -112 308 -251 402 -43
28 -107 60 -147 72 l-72 23 -755 0 -755 0 -72 -23 c-197 -61 -345 -227 -390
-434 l-16 -78 -59 0 -58 0 0 875 0 875 1350 0 1350 0 0 -875z m-2850 120 l0
-355 -150 0 -150 0 0 348 c0 192 3 352 7 355 3 4 71 7 150 7 l143 0 0 -355z
m3298 -2 l2 -353 -150 0 -150 0 0 355 0 356 148 -3 147 -3 3 -352z m83 -518
c16 -9 39 -30 49 -48 18 -30 20 -52 20 -289 l0 -258 -47 29 c-79 49 -196 82
-305 89 l-98 5 0 243 0 244 175 0 c139 0 182 -3 206 -15z m-1051 -126 c122
-59 202 -155 236 -284 11 -39 14 -187 14 -687 l0 -638 -1080 0 -1081 0 3 663
3 662 36 75 c58 119 168 211 287 239 20 5 365 9 772 8 l735 -2 75 -36z m-2060
-654 l0 -155 -288 0 c-323 0 -327 -1 -387 -74 l-30 -38 0 -188 0 -188 30 -38
c60 -73 64 -74 387 -74 l288 0 0 -100 0 -100 -430 0 -430 0 0 323 c0 356 5
399 61 510 59 117 196 226 329 263 29 8 121 13 258 13 l212 1 0 -155z m2919
140 c193 -46 355 -215 390 -409 6 -34 11 -193 11 -373 l0 -313 -430 0 -430 0
0 100 0 100 288 0 c323 0 327 1 387 74 l30 38 0 188 0 188 -30 38 c-60 73 -64
74 -387 74 l-288 0 0 155 0 155 198 0 c140 0 215 -5 261 -15z m-2919 -595 l0
-150 -277 2 -278 3 -3 134 c-1 74 0 141 2 148 4 10 64 13 281 13 l275 0 0
-150z m3015 0 l0 -145 -277 -3 -278 -2 0 150 0 150 278 -2 277 -3 0 -145z
m523 -776 c2 -112 1 -123 -21 -155 -12 -19 -34 -39 -47 -46 -20 -9 -1016 -183
-1050 -183 -6 0 -10 47 -10 125 0 209 -18 225 -250 225 -232 0 -250 -16 -250
-225 l0 -125 -680 0 -680 0 0 125 c0 209 -18 225 -250 225 -232 0 -250 -16
-250 -225 0 -81 -4 -125 -11 -125 -5 0 -87 13 -182 29 -95 17 -323 55 -507 86
-184 32 -346 62 -360 69 -13 6 -35 26 -47 45 -21 31 -23 46 -23 151 0 64 3
120 7 123 3 4 1042 6 2307 5 l2301 -3 3 -121z m-3138 -284 l0 -100 -100 0
-100 0 0 100 0 100 100 0 100 0 0 -100z m1860 0 l0 -100 -100 0 -100 0 0 100
0 100 100 0 100 0 0 -100z m-2620 -185 c146 -25 275 -47 288 -50 48 -11 15
-117 -47 -150 -44 -22 -428 -22 -472 0 -51 27 -69 69 -69 163 0 71 2 82 18 82
9 0 136 -20 282 -45z m3480 -37 c0 -65 -4 -90 -20 -115 -35 -58 -56 -63 -285
-63 -229 0 -250 5 -285 63 -16 26 -28 95 -17 98 62 13 560 97 580 98 l27 1 0
-82z"/>
<path d="M1430 3951 c-19 -10 -48 -35 -65 -55 l-30 -38 0 -343 0 -343 30 -38
c17 -20 46 -45 65 -55 33 -18 82 -19 1130 -19 1048 0 1097 1 1130 19 59 31 93
83 98 149 5 70 -18 102 -73 102 -43 0 -68 -26 -75 -78 l-5 -37 -1075 0 -1075
0 0 300 0 300 1075 0 1075 0 5 -117 c4 -92 9 -122 22 -138 25 -28 81 -27 108
3 20 20 21 31 18 159 -3 135 -3 137 -33 174 -17 20 -46 45 -65 55 -33 18 -82
19 -1130 19 -1048 0 -1097 -1 -1130 -19z"/>
<path d="M1865 2596 c-65 -21 -98 -41 -146 -93 -84 -90 -84 -88 -84 -573 0
-425 0 -425 24 -477 29 -66 111 -143 176 -169 48 -18 82 -19 725 -19 643 0
677 1 725 19 65 26 147 103 176 169 24 52 24 52 24 477 0 396 -1 428 -19 475
-26 65 -103 147 -169 176 -52 24 -54 24 -497 27 -439 3 -446 2 -468 -18 -30
-28 -30 -82 0 -110 21 -19 33 -20 448 -20 477 0 463 2 525 -74 l30 -38 0 -413
0 -413 -30 -38 c-64 -78 -21 -74 -745 -74 -724 0 -681 -4 -745 74 l-30 38 -3
401 c-3 452 -5 439 72 502 34 27 46 30 121 33 98 5 125 21 125 77 0 57 -29 75
-119 74 -42 0 -94 -6 -116 -13z"/>
<path d="M1955 2285 c-14 -13 -25 -36 -25 -50 0 -14 11 -37 25 -50 l24 -25
586 0 586 0 24 25 c14 13 25 36 25 50 0 14 -11 37 -25 50 l-24 25 -586 0 -586
0 -24 -25z"/>
<path d="M1955 1985 c-14 -13 -25 -36 -25 -50 0 -14 11 -37 25 -50 l24 -25
586 0 586 0 24 25 c14 13 25 36 25 50 0 14 -11 37 -25 50 l-24 25 -586 0 -586
0 -24 -25z"/>
<path d="M1955 1685 c-14 -13 -25 -36 -25 -50 0 -14 11 -37 25 -50 l24 -25
586 0 586 0 24 25 c14 13 25 36 25 50 0 14 -11 37 -25 50 l-24 25 -586 0 -586
0 -24 -25z"/>
</g>
</svg>
