<svg version="1.0" xmlns="http://www.w3.org/2000/svg" width="682.667" height="682.667" viewBox="0 0 512 512"><path d="M51.5 2.5C49 4.9 49 5 49 25.2c.1 15.1.4 20.7 1.4 22 2 2.7 6.1 3.8 13.7 3.8H71v75.5l-3.3 2.7c-6.7 5.3-6.7 5.5-6.7 47.1v37.6l-5.4 5.4c-4.1 4.1-5.8 6.7-7 10.7-3.4 11.3-1.2 18 5.9 18 4.6 0 7.5-3.2 7.5-8.2 0-5.1 2.3-9.4 6.3-11.8 2.8-1.8 5.1-2 20.5-2H106v49h-7.8c-9.8 0-21.3 2.8-29.8 7.4l-6.4 3.4v-6.2c0-4.9-.4-6.7-2-8.4-2.8-3-8.2-3-11 0-1.8 2-2 3.5-2 15.2l-.1 13.1-3.9 6c-2.2 3.3-5 8.5-6.1 11.5-4.4 11.5-4.9 16.9-4.9 51.1v32.7l-5.5.4c-6.3.5-11.5 4-14.7 9.8-1.7 3.1-1.9 5.3-1.6 19 .4 17.5 1.2 20.3 8.5 27.1 5 4.8 8.5 6.5 16.3 7.9 3.6.6 8.9 1.5 11.7 2.1l5.3 1v10.4c0 13 2 19.2 8.3 25.3 7.5 7.4 11.2 8.2 37.2 8.2 20 0 23.1-.2 27.7-2 9.8-3.7 17.8-14.8 17.8-24.5V482h226v3.5c0 9.7 8 20.8 17.8 24.5 4.6 1.8 7.7 2 27.7 2 26.2 0 30-.9 37.3-8.3 6.2-6.3 8.2-12.4 8.2-25.2 0-5.8.1-10.5.3-10.5.2 0 5.4-.9 11.6-2 12.8-2.3 17-4.2 22.2-9.7 6.8-7 7.3-9.1 7.7-26.3.3-13.7.1-15.9-1.6-19-3.2-5.8-8.4-9.3-14.7-9.8l-5.5-.4V369c0-24.1-.4-33.7-1.5-39.6-1.5-7.6-6.4-19.7-10.5-25.4-1.9-2.7-2-4.3-2-35.7 0-39.8-.2-40.7-9.1-49.5L451 213v-35.9c0-19.7-.3-37.3-.7-39.2-.4-2-2.4-5-5-7.6l-4.3-4.4V51h6.9c7.6 0 11.7-1.1 13.7-3.8 1-1.3 1.3-6.9 1.4-22 0-20.2 0-20.3-2.5-22.7-2.3-2.4-3-2.5-13.9-2.5-13.8 0-19.9 1.2-28.6 5.4-12.8 6.2-23.6 20.7-26.1 35.4-.6 3.5-1.3 6.2-1.4 6-.2-.2-1.7-4.3-3.4-9.2-4.4-12.4-7.5-17.7-14.1-24-6.3-6-13.2-9.9-21.7-12.1-8.7-2.3-182.1-2.2-190.8 0-8.7 2.3-16.7 7-22.8 13.4-6.1 6.4-9.1 11.7-13.3 24l-2.9 8.4-1.7-7.8c-3.5-15.3-13.1-28-25.8-34.1C85.3 1.2 79.2 0 65.4 0 54.5 0 53.8.1 51.5 2.5zM86 18.2c6.9 3.1 13.1 9.3 16.7 16.6l2.8 5.7.3 42.2.3 42.3H86V85.5c0-43 0-43-5.6-47.4-2.1-1.7-4.1-2.1-9.5-2.1H64V14.7l8.3.5c6 .3 9.7 1.1 13.7 3zm90 5.3c0 10.8 2.4 17.5 8.3 23.3 5.9 5.8 12.6 8.2 23 8.2 9.8 0 12.7-1.7 12.7-7.5 0-5.7-2.9-7.5-11.9-7.5-12.9 0-17.1-4.3-17.1-17.5V15h130v7.5c0 8.8-1.6 12.7-6.3 15.5-3 1.9-5.2 2-36.3 2-31.8 0-33.1.1-35.2 2-3 2.8-3 8.2 0 11 2.1 1.9 3.3 2 36 2 38.6 0 40.5-.3 48.5-8.2 5.9-5.8 8.3-12.5 8.3-23.5v-8.6l6.3.5c3.5.3 8.4 1.5 10.9 2.6 5.5 2.4 12.6 8.7 15.1 13.4.9 1.8 5.7 14.5 10.6 28.3l8.8 25-65.8.3c-36.3.1-95.5.1-131.8 0l-65.8-.3 8.8-25c4.9-13.8 9.6-26.4 10.5-28 5.5-9.8 16.4-16.3 27.7-16.4l4.7-.1v8.5zm272 2V36h-6.9c-5.4 0-7.4.4-9.5 2.1-5.6 4.4-5.6 4.4-5.6 47.4V125h-20.1l.3-42.3.3-42.2 2.8-5.7c6.3-12.8 17.2-19.6 32-19.7l6.7-.1v10.5zm-57 162V275h-11.9l-.6-3.8c-3-17.8-11.2-30.8-25.1-40.2-4.3-2.8-10.7-6-14.7-7.2l-7.2-2.3h-151l-7.2 2.3c-19.7 6.1-34.5 22.7-39 43.4l-1.6 7.8H121V100h270v87.5zm-285-12V211H76v-34.8c0-19.2.3-35.2.7-35.5.3-.4 7.1-.7 15-.7H106v35.5zm329.8.2l.2 35.3h-30v-71.1l14.8.3 14.7.3.3 35.2zm8.3 51.8c1.6.9 3.9 3 4.9 4.8 1.8 3 2 5.2 2 28.9V287l-4.7-2.9c-7.9-4.9-19.6-8.2-30.5-8.9l-9.8-.5V226h17.5c13.9 0 18.2.3 20.6 1.5zM339 240.1c12.2 5.9 20.2 15.5 23.6 28.4 1.1 3.9 1.4 18.7 1.4 68.7V401H147.9l.3-66.3.3-66.2 3.6-7.5c5.8-11.9 16.8-21.1 28.7-23.9 2-.5 36.5-.9 77.2-.8l73.5.2 7.5 3.6zm-206 65.4V321h-28.8c-32.3 0-32.7.1-38.7 7.4l-3 3.8v37.6l3 3.8c6 7.3 6.4 7.4 38.7 7.4H133v20H47v-32.3c0-35.6.5-39.9 6.1-51C59 306 72.7 295.1 86 291.4c2.9-.8 12.1-1.3 25.8-1.3l21.2-.1v15.5zm291.9-14c19.3 4.6 35.5 21.5 39 40.9.6 3.4 1.1 19.3 1.1 37.3V401h-86v-20h28.8c32.3 0 32.7-.1 38.7-7.4l3-3.8v-37.6l-3-3.8c-6-7.3-6.4-7.4-38.7-7.4H379v-31h19.8c14 0 21.5.5 26.1 1.5zM133 351v15l-27.7-.2-27.8-.3-.3-13.4c-.1-7.4 0-14.1.2-14.8.4-1 6.4-1.3 28.1-1.3H133v15zm301.5 0v14.5l-27.7.3-27.8.2v-30l27.8.2 27.7.3V351zm52.3 77.6c.2 11.2.1 12.3-2.1 15.5-1.2 1.9-3.4 3.9-4.7 4.6-2 .9-101.6 18.3-105 18.3-.6 0-1-4.7-1-12.5 0-20.9-1.8-22.5-25-22.5s-25 1.6-25 22.5V467H188v-12.5c0-20.9-1.8-22.5-25-22.5s-25 1.6-25 22.5c0 8.1-.4 12.5-1.1 12.5-.5 0-8.7-1.3-18.2-2.9-9.5-1.7-32.3-5.5-50.7-8.6-18.4-3.2-34.6-6.2-36-6.9-1.3-.6-3.5-2.6-4.7-4.5-2.1-3.1-2.3-4.6-2.3-15.1 0-6.4.3-12 .7-12.3.3-.4 104.2-.6 230.7-.5l230.1.3.3 12.1zM173 457v10h-20v-20h20v10zm186 0v10h-20v-20h20v10zM97 475.5c14.6 2.5 27.5 4.7 28.8 5 4.8 1.1 1.5 11.7-4.7 15-4.4 2.2-42.8 2.2-47.2 0-5.1-2.7-6.9-6.9-6.9-16.3 0-7.1.2-8.2 1.8-8.2.9 0 13.6 2 28.2 4.5zm348 3.7c0 6.5-.4 9-2 11.5-3.5 5.8-5.6 6.3-28.5 6.3s-25-.5-28.5-6.3c-1.6-2.6-2.8-9.5-1.7-9.8 6.2-1.3 56-9.7 58-9.8l2.7-.1v8.2z"/><path d="M143 116.9c-1.9 1-4.8 3.5-6.5 5.5l-3 3.8v68.6l3 3.8c1.7 2 4.6 4.5 6.5 5.5 3.3 1.8 8.2 1.9 113 1.9s109.7-.1 113-1.9c5.9-3.1 9.3-8.3 9.8-14.9.5-7-1.8-10.2-7.3-10.2-4.3 0-6.8 2.6-7.5 7.8l-.5 3.7h-215v-60h215l.5 11.7c.4 9.2.9 12.2 2.2 13.8 2.5 2.8 8.1 2.7 10.8-.3 2-2 2.1-3.1 1.8-15.9-.3-13.5-.3-13.7-3.3-17.4-1.7-2-4.6-4.5-6.5-5.5-3.3-1.8-8.2-1.9-113-1.9s-109.7.1-113 1.9zm43.5 135.5c-6.5 2.1-9.8 4.1-14.6 9.3-8.4 9-8.4 8.8-8.4 57.3 0 42.5 0 42.5 2.4 47.7 2.9 6.6 11.1 14.3 17.6 16.9 4.8 1.8 8.2 1.9 72.5 1.9s67.7-.1 72.5-1.9c6.5-2.6 14.7-10.3 17.6-16.9 2.4-5.2 2.4-5.2 2.4-47.7 0-39.6-.1-42.8-1.9-47.5-2.6-6.5-10.3-14.7-16.9-17.6-5.2-2.4-5.4-2.4-49.7-2.7-43.9-.3-44.6-.2-46.8 1.8-3 2.8-3 8.2 0 11 2.1 1.9 3.3 2 44.8 2 47.7 0 46.3-.2 52.5 7.4l3 3.8v82.6l-3 3.8c-6.4 7.8-2.1 7.4-74.5 7.4s-68.1.4-74.5-7.4l-3-3.8-.3-40.1c-.3-45.2-.5-43.9 7.2-50.2 3.4-2.7 4.6-3 12.1-3.3 9.8-.5 12.5-2.1 12.5-7.7 0-5.7-2.9-7.5-11.9-7.4-4.2 0-9.4.6-11.6 1.3z"/><path d="M195.5 283.5c-1.4 1.3-2.5 3.6-2.5 5s1.1 3.7 2.5 5l2.4 2.5h117.2l2.4-2.5c1.4-1.3 2.5-3.6 2.5-5s-1.1-3.7-2.5-5l-2.4-2.5H197.9l-2.4 2.5zm0 30c-1.4 1.3-2.5 3.6-2.5 5s1.1 3.7 2.5 5l2.4 2.5h117.2l2.4-2.5c1.4-1.3 2.5-3.6 2.5-5s-1.1-3.7-2.5-5l-2.4-2.5H197.9l-2.4 2.5zm0 30c-1.4 1.3-2.5 3.6-2.5 5s1.1 3.7 2.5 5l2.4 2.5h117.2l2.4-2.5c1.4-1.3 2.5-3.6 2.5-5s-1.1-3.7-2.5-5l-2.4-2.5H197.9l-2.4 2.5z"/></svg>