<?xml version="1.0" standalone="no"?>
<!DOCTYPE svg PUBLIC "-//W3C//DTD SVG 20010904//EN"
 "http://www.w3.org/TR/2001/REC-SVG-20010904/DTD/svg10.dtd">
<svg version="1.0" xmlns="http://www.w3.org/2000/svg"
 width="512.000000pt" height="512.000000pt" viewBox="0 0 512.000000 512.000000"
 preserveAspectRatio="xMidYMid meet">

<g transform="translate(0.000000,512.000000) scale(0.100000,-0.100000)"
fill="#000000" stroke="none">
<path d="M1345 4865 c-357 -96 -667 -179 -688 -185 -49 -14 -77 -43 -77 -79 0
-58 22 -70 231 -125 l194 -51 5 -360 c9 -547 14 -658 38 -747 68 -253 224
-469 434 -602 43 -27 77 -51 75 -52 -1 -1 -54 -19 -117 -39 -405 -130 -765
-401 -1001 -754 -163 -244 -281 -562 -305 -819 -6 -66 -5 -72 19 -96 l26 -26
629 0 629 0 -4 -23 c-16 -82 279 -620 425 -776 69 -74 80 -72 214 41 l45 38
37 -20 c50 -25 64 -19 200 89 135 107 270 207 430 319 l121 83 8 -33 c20 -83
83 -89 187 -17 l73 50 41 -29 c129 -92 146 -98 191 -59 26 22 27 27 37 192 6
94 12 172 14 174 3 3 76 -30 163 -73 151 -74 160 -78 187 -65 47 23 56 55 44
155 -6 47 -10 88 -8 89 2 1 37 19 78 40 99 49 110 60 110 106 0 30 -6 42 -31
62 l-31 24 177 82 c156 72 259 117 541 232 78 32 101 59 91 106 -5 28 -4 29
89 62 136 48 145 67 93 198 -75 188 -220 440 -359 622 -93 123 -104 123 -253
-2 l-46 -38 -30 22 c-40 30 -63 22 -157 -54 -178 -144 -628 -467 -650 -467 -3
0 -33 29 -66 65 -194 212 -497 402 -789 497 -71 22 -128 42 -127 44 2 1 44 29
95 63 281 188 442 497 445 856 0 61 4 274 7 474 l6 364 62 18 c35 9 76 20 93
24 l30 7 0 -265 0 -265 -65 -36 c-35 -20 -71 -46 -80 -59 -22 -31 -22 -514 0
-556 28 -56 74 -55 154 4 34 25 65 45 69 45 5 0 35 -20 68 -45 66 -50 98 -55
138 -24 l26 20 0 275 c0 312 7 286 -93 343 l-57 32 0 287 0 287 33 15 c57 27
63 106 9 134 -33 17 -1383 376 -1409 375 -10 -1 -310 -79 -668 -174z m1195
-125 c278 -74 507 -135 509 -137 2 -2 2 -5 0 -7 -2 -2 -234 -65 -516 -140
l-512 -136 -268 71 c-147 39 -383 102 -523 139 -253 67 -255 68 -215 79 127
38 1002 268 1010 266 6 -1 237 -62 515 -135z m-938 -475 c219 -58 407 -105
419 -105 16 0 748 190 832 216 16 5 17 -13 17 -280 0 -262 -1 -285 -17 -290
-59 -18 -627 -119 -720 -129 -149 -15 -251 -4 -633 68 -168 31 -311 58 -317
61 -10 2 -13 69 -13 289 0 268 1 286 18 281 9 -3 196 -53 414 -111z m1733
-482 l35 -17 0 -133 c0 -73 -2 -133 -3 -133 -2 0 -19 8 -37 17 -32 16 -36 15
-72 -4 l-38 -21 0 133 0 133 33 20 c40 25 39 25 82 5z m-1878 -192 c388 -74
467 -84 613 -78 69 3 166 13 215 22 112 20 386 71 482 91 40 7 78 14 84 14 17
0 5 -216 -16 -295 -9 -33 -36 -101 -60 -151 -116 -240 -329 -406 -592 -460
-108 -23 -301 -15 -398 16 -282 90 -496 306 -576 582 -23 82 -39 308 -21 308
5 0 126 -22 269 -49z m780 -1050 c25 -7 20 -12 -86 -95 -62 -48 -118 -89 -125
-92 -13 -5 -250 175 -242 183 20 20 382 23 453 4z m-501 -178 c90 -69 163
-130 162 -135 -5 -13 -202 -247 -210 -247 -7 -1 -255 437 -260 459 -3 13 80
48 120 49 15 1 81 -43 188 -126z m824 108 c34 -11 54 -23 52 -31 -5 -21 -254
-460 -261 -460 -9 1 -206 240 -206 251 0 16 319 258 340 258 11 0 45 -8 75
-18z m1976 -54 c29 -39 71 -103 94 -142 55 -90 170 -319 170 -337 0 -13 -76
-45 -85 -36 -2 2 -34 64 -72 138 -37 74 -104 189 -148 255 -44 66 -82 124 -84
128 -4 11 49 67 63 67 6 0 34 -33 62 -73z m-247 -102 c106 -144 201 -311 277
-487 18 -43 30 -79 26 -82 -4 -2 -52 -22 -107 -44 -139 -56 -351 -150 -539
-240 l-158 -76 -96 49 c-93 49 -96 51 -114 103 -27 74 -112 163 -194 203 l-65
32 48 30 c251 158 805 550 828 587 14 22 33 7 94 -75z m-2849 -230 c89 -159
169 -298 178 -307 26 -26 64 -31 94 -11 15 10 88 91 163 181 75 89 140 162
145 162 4 0 70 -73 145 -162 75 -90 148 -171 163 -181 30 -20 68 -15 94 11 9
9 91 150 182 313 l167 297 77 -42 c94 -51 117 -65 212 -135 74 -54 260 -227
260 -242 0 -10 -325 -204 -535 -320 -305 -167 -771 -384 -1015 -474 -44 -16
-86 -39 -102 -56 l-28 -29 -670 0 -671 0 7 38 c52 302 211 624 426 862 65 71
186 179 268 238 90 65 263 163 271 154 3 -4 79 -137 169 -297z m1896 -501
c126 -77 150 -253 48 -358 -45 -46 -83 -66 -144 -73 -68 -8 -132 12 -184 58
-128 113 -94 323 64 394 58 25 157 16 216 -21z m-517 -141 c-9 -57 5 -162 30
-218 10 -22 34 -60 53 -85 l34 -45 -5 -105 -6 -105 -94 -63 c-159 -105 -344
-238 -488 -349 l-137 -105 -29 33 c-99 117 -320 505 -342 599 -6 24 0 28 127
80 215 87 409 176 643 296 121 62 220 113 221 113 0 1 -3 -20 -7 -46z m949
-228 c2 -2 -14 -13 -36 -24 -46 -23 -52 -35 -52 -102 0 -27 -2 -49 -5 -49 -3
0 -41 18 -85 40 l-79 40 34 56 c19 31 39 72 45 90 l11 34 82 -41 c45 -23 84
-43 85 -44z m-478 -300 c0 -105 -6 -114 -55 -81 -46 32 -67 32 -112 5 -19 -12
-36 -20 -38 -18 -2 2 -1 43 2 90 l6 86 98 -1 99 -1 0 -80z m-1509 -184 c40
-80 110 -200 156 -269 l82 -124 -31 -26 c-18 -15 -36 -27 -42 -27 -12 0 -89
107 -161 226 -54 90 -165 309 -165 326 0 7 81 44 86 39 1 0 35 -66 75 -145z"/>
</g>
</svg>
